<svg width="57" height="58" viewBox="0 0 57 58" fill="none" xmlns="http://www.w3.org/2000/svg">
<path d="M28.3213 1.39097C43.2129 1.39097 55.2851 13.4656 55.2851 28.3608C55.2851 43.256 43.2129 55.3306 28.3213 55.3306C13.4298 55.3306 1.35742 43.256 1.35742 28.3608C1.35742 13.4656 13.4298 1.39097 28.3213 1.39097Z" fill="#AC624F" fill-opacity="0.01" stroke="url(#paint0_linear_269_324)" stroke-width="1.33333"/>
<g opacity="0.5">
<path fill-rule="evenodd" clip-rule="evenodd" d="M20.9247 34.4332L34.8488 21.0198C35.3504 20.5365 36.1353 20.5641 36.6021 21.0813C37.0688 21.5982 37.0406 22.4092 36.539 22.8922L22.615 36.3056C22.1134 36.7887 21.3284 36.7613 20.8617 36.2441C20.395 35.7272 20.4232 34.9162 20.9247 34.4332Z" fill="url(#paint1_linear_269_324)"/>
<path fill-rule="evenodd" clip-rule="evenodd" d="M35.7179 34.4332L21.7937 21.0198C21.2922 20.5365 20.5073 20.5641 20.0405 21.0813C19.5738 21.5982 19.602 22.4092 20.1036 22.8922L34.0276 36.3056C34.5292 36.7887 35.3142 36.7613 35.7808 36.2441C36.2475 35.7272 36.2193 34.9162 35.7179 34.4332Z" fill="url(#paint2_linear_269_324)"/>
</g>
<defs>
<linearGradient id="paint0_linear_269_324" x1="8.57092" y1="12.0401" x2="41.393" y2="61.6444" gradientUnits="userSpaceOnUse">
<stop stop-color="#EBBD71"/>
<stop offset="1" stop-color="#EFA52C"/>
</linearGradient>
<linearGradient id="paint1_linear_269_324" x1="15.8196" y1="23.5484" x2="25.6177" y2="43.7054" gradientUnits="userSpaceOnUse">
<stop stop-color="#EBBD71"/>
<stop offset="1" stop-color="#EFA52C"/>
</linearGradient>
<linearGradient id="paint2_linear_269_324" x1="40.823" y1="23.5484" x2="31.0249" y2="43.7054" gradientUnits="userSpaceOnUse">
<stop stop-color="#EBBD71"/>
<stop offset="1" stop-color="#EFA52C"/>
</linearGradient>
</defs>
</svg>
